<?xml version="1.0" encoding="UTF-8"?> <svg xmlns="http://www.w3.org/2000/svg" width="500" height="500" viewBox="0 0 500 500" fill="none"><path opacity="0.05" d="M159.267 49.6728C159.267 49.6728 87.4845 86.2835 51.6832 142.693C15.882 199.102 18.7146 271.651 62.218 325.49C105.721 379.33 188.872 372.304 258.495 406.44C328.117 440.575 404.93 433.54 437.852 361.248C470.773 288.955 421.13 261.903 412.604 178.261C404.078 94.6183 328.733 -27.8439 159.267 49.6728Z" fill="#3B62B2"></path><path d="M441.85 278.331L441.85 278.331L441.85 278.331L441.85 278.332L441.824 284.899C437.504 281.658 433.445 278.082 429.683 274.206C427.082 271.398 426.461 267.666 426.513 264.575C426.538 263.034 426.731 261.672 426.917 260.695C426.974 260.4 427.029 260.141 427.079 259.923C427.102 259.943 427.125 259.964 427.148 259.986C427.594 260.39 428.249 260.991 429.089 261.776C430.767 263.347 433.181 265.653 436.116 268.593C439.013 271.495 440.445 273.963 441.153 275.684C441.507 276.545 441.681 277.221 441.767 277.675C441.81 277.901 441.831 278.073 441.841 278.183C441.846 278.239 441.848 278.279 441.849 278.304C441.85 278.316 441.85 278.324 441.85 278.329L441.85 278.331Z" fill="#BCC6D9" stroke="#BCC6D9"></path><path d="M418.545 286.163C418.568 286.184 418.592 286.205 418.616 286.228C419.061 286.634 419.715 287.237 420.554 288.024C422.23 289.599 424.641 291.908 427.577 294.844C430.474 297.74 431.906 300.206 432.614 301.925C432.968 302.786 433.142 303.462 433.228 303.915C433.271 304.141 433.291 304.313 433.301 304.423C433.306 304.479 433.309 304.519 433.31 304.544C433.31 304.556 433.311 304.564 433.311 304.569L433.311 304.571L433.311 304.571L433.311 304.572L433.293 311.138C428.972 307.898 424.913 304.323 421.153 300.445C418.523 297.642 417.902 293.912 417.961 290.819C417.99 289.279 418.188 287.916 418.379 286.939C418.437 286.642 418.494 286.382 418.545 286.163Z" fill="#BCC6D9" stroke="#BCC6D9"></path><mask id="path-4-inside-1" fill="white"><path d="M441.98 285.49C441.98 285.49 442.42 281.31 448.9 276.08C455.38 270.85 459.48 267.91 459.48 267.91C459.48 267.91 461.39 277.83 455.33 283.1C450.897 286.788 446.163 290.099 441.18 293L441.98 285.49Z"></path></mask><path d="M441.98 285.49C441.98 285.49 442.42 281.31 448.9 276.08C455.38 270.85 459.48 267.91 459.48 267.91C459.48 267.91 461.39 277.83 455.33 283.1C450.897 286.788 446.163 290.099 441.18 293L441.98 285.49Z" fill="#BCC6D9"></path><path d="M441.98 285.49L442.974 285.596L442.974 285.595L441.98 285.49ZM459.48 267.91L460.462 267.721L460.166 266.187L458.897 267.097L459.48 267.91ZM455.33 283.1L455.969 283.869L455.978 283.862L455.986 283.855L455.33 283.1ZM441.18 293L440.185 292.894L439.976 294.858L441.683 293.864L441.18 293ZM441.98 285.49C442.974 285.595 442.974 285.595 442.974 285.596C442.974 285.596 442.974 285.597 442.974 285.597C442.974 285.598 442.974 285.599 442.974 285.599C442.974 285.601 442.973 285.602 442.973 285.603C442.973 285.604 442.973 285.605 442.973 285.605C442.973 285.604 442.974 285.599 442.975 285.591C442.978 285.574 442.983 285.542 442.992 285.495C443.011 285.401 443.046 285.248 443.107 285.043C443.231 284.633 443.462 284.011 443.889 283.223C444.741 281.649 446.383 279.397 449.528 276.858L448.272 275.302C444.937 277.993 443.118 280.446 442.13 282.27C441.637 283.181 441.354 283.93 441.192 284.467C441.111 284.735 441.061 284.95 441.03 285.106C441.015 285.183 441.004 285.246 440.997 285.293C440.994 285.316 440.991 285.336 440.989 285.351C440.988 285.359 440.987 285.366 440.987 285.371C440.986 285.374 440.986 285.377 440.986 285.379C440.986 285.38 440.986 285.381 440.985 285.382C440.985 285.383 440.985 285.384 440.985 285.384C440.985 285.385 440.985 285.385 441.98 285.49ZM449.528 276.858C452.759 274.25 455.396 272.214 457.223 270.831C458.137 270.14 458.848 269.611 459.33 269.257C459.572 269.079 459.755 268.945 459.878 268.856C459.94 268.811 459.986 268.777 460.017 268.755C460.033 268.744 460.044 268.736 460.052 268.73C460.055 268.728 460.058 268.726 460.06 268.724C460.061 268.724 460.062 268.723 460.062 268.723C460.062 268.723 460.062 268.723 460.062 268.723C460.062 268.723 460.062 268.723 460.062 268.723C460.062 268.723 460.062 268.723 459.48 267.91C458.897 267.097 458.897 267.097 458.897 267.097C458.897 267.097 458.897 267.098 458.897 267.098C458.896 267.098 458.896 267.098 458.896 267.098C458.895 267.099 458.894 267.099 458.893 267.1C458.891 267.102 458.888 267.104 458.884 267.107C458.875 267.113 458.863 267.122 458.847 267.133C458.814 267.157 458.766 267.192 458.703 267.237C458.577 267.329 458.39 267.466 458.145 267.646C457.656 268.006 456.937 268.539 456.016 269.236C454.174 270.631 451.521 272.68 448.272 275.302L449.528 276.858ZM459.48 267.91C458.498 268.099 458.498 268.099 458.498 268.099C458.498 268.099 458.498 268.098 458.498 268.098C458.498 268.098 458.498 268.098 458.498 268.098C458.498 268.099 458.498 268.099 458.498 268.101C458.499 268.104 458.5 268.109 458.501 268.117C458.504 268.132 458.508 268.156 458.514 268.19C458.525 268.256 458.541 268.357 458.56 268.489C458.598 268.753 458.647 269.141 458.687 269.625C458.768 270.596 458.815 271.941 458.681 273.44C458.411 276.463 457.423 279.955 454.673 282.345L455.986 283.855C459.297 280.975 460.383 276.872 460.673 273.618C460.82 271.977 460.768 270.513 460.68 269.459C460.636 268.931 460.583 268.503 460.54 268.205C460.518 268.055 460.499 267.938 460.486 267.856C460.479 267.815 460.473 267.783 460.469 267.76C460.467 267.749 460.465 267.74 460.464 267.734C460.463 267.73 460.463 267.728 460.462 267.725C460.462 267.724 460.462 267.723 460.462 267.723C460.462 267.722 460.462 267.722 460.462 267.722C460.462 267.721 460.462 267.721 459.48 267.91ZM454.69 282.331C450.3 285.983 445.612 289.263 440.677 292.136L441.683 293.864C446.715 290.936 451.493 287.592 455.969 283.869L454.69 282.331ZM442.174 293.106L442.974 285.596L440.985 285.384L440.185 292.894L442.174 293.106Z" fill="#BCC6D9" mask="url(#path-4-inside-1)"></path><path d="M444.918 315.117C440.417 318.118 435.689 320.761 430.777 323.024L432.158 316.587L432.159 316.587L432.159 316.587L432.159 316.586L432.159 316.585L432.159 316.583C432.16 316.579 432.162 316.571 432.165 316.559C432.172 316.535 432.182 316.496 432.199 316.443C432.232 316.337 432.288 316.174 432.378 315.961C432.556 315.535 432.868 314.91 433.395 314.143C434.447 312.609 436.363 310.497 439.802 308.27C443.287 306.013 446.129 304.266 448.1 303.084C449.085 302.493 449.852 302.043 450.373 301.741C450.401 301.725 450.428 301.709 450.454 301.694C450.457 301.918 450.457 302.183 450.45 302.484C450.428 303.479 450.331 304.853 450.033 306.365C449.436 309.4 448.047 312.919 444.918 315.117Z" fill="#BCC6D9" stroke="#BCC6D9"></path><path d="M434.109 350.272L434.109 350.271L434.109 350.271L434.109 350.269C434.11 350.264 434.11 350.256 434.11 350.243C434.111 350.219 434.114 350.178 434.119 350.123C434.129 350.012 434.15 349.84 434.193 349.613C434.278 349.159 434.453 348.482 434.807 347.62C435.515 345.898 436.946 343.43 439.843 340.533C442.779 337.598 445.19 335.291 446.866 333.72C447.705 332.934 448.359 332.332 448.804 331.926C448.827 331.905 448.849 331.885 448.871 331.865C448.921 332.083 448.976 332.341 449.032 332.635C449.219 333.612 449.411 334.974 449.437 336.513C449.488 339.604 448.867 343.333 446.266 346.136C442.508 350.018 438.449 353.597 434.127 356.838L434.109 350.272Z" fill="#BCC6D9" stroke="#BCC6D9"></path><path d="M433.014 358.44L433.014 358.441L433.014 358.442L433.014 358.442L433.014 358.442L432.076 364.947C428.251 361.125 424.734 357.007 421.557 352.631C419.381 349.485 419.297 345.703 419.789 342.65C420.034 341.128 420.419 339.807 420.743 338.866C420.841 338.582 420.933 338.333 421.014 338.124C421.033 338.147 421.052 338.171 421.072 338.195C421.455 338.66 422.018 339.348 422.737 340.245C424.173 342.039 426.233 344.664 428.719 347.989C431.172 351.271 432.24 353.917 432.697 355.72C432.926 356.623 433.003 357.318 433.024 357.779C433.035 358.009 433.031 358.182 433.026 358.293C433.023 358.349 433.019 358.389 433.017 358.414C433.016 358.426 433.015 358.434 433.014 358.439L433.014 358.44Z" fill="#BCC6D9" stroke="#BCC6D9"></path><path d="M442.973 364.605C443.023 364.822 443.079 365.081 443.135 365.375C443.322 366.352 443.516 367.714 443.542 369.253C443.595 372.344 442.974 376.073 440.368 378.876C436.61 382.758 432.551 386.337 428.228 389.578L428.211 383.002L428.211 383.001L428.211 383.001L428.211 382.999C428.211 382.994 428.211 382.986 428.212 382.974C428.213 382.949 428.215 382.909 428.22 382.853C428.23 382.742 428.251 382.571 428.294 382.345C428.38 381.892 428.554 381.216 428.908 380.355C429.616 378.636 431.048 376.17 433.944 373.274C436.88 370.338 439.291 368.031 440.968 366.46C441.806 365.674 442.461 365.072 442.905 364.666C442.928 364.645 442.951 364.625 442.973 364.605Z" fill="#BCC6D9" stroke="#BCC6D9"></path><path d="M432.094 404.994L432.094 404.994L432.094 404.993L432.094 404.992C432.092 404.987 432.091 404.979 432.088 404.967C432.083 404.943 432.075 404.903 432.066 404.848C432.047 404.738 432.024 404.567 432.007 404.337C431.975 403.876 431.972 403.177 432.096 402.254C432.344 400.41 433.103 397.66 435.172 394.122C437.269 390.537 439.016 387.694 440.239 385.748C440.85 384.775 441.33 384.027 441.657 383.522C441.673 383.496 441.69 383.471 441.706 383.446C441.809 383.644 441.928 383.88 442.056 384.149C442.484 385.047 443.015 386.316 443.43 387.8C444.263 390.777 444.606 394.544 442.802 397.919C440.138 402.623 437.109 407.111 433.744 411.341L432.094 404.995L432.094 404.995L432.094 404.994Z" fill="#BCC6D9" stroke="#BCC6D9"></path><path d="M442.881 277.25C442.587 281.627 442.049 285.983 441.271 290.3C438.951 302.3 433.131 310.06 430.811 320.92C428.491 331.78 435.161 345.75 433.371 359.69C431.581 373.63 426.161 381.38 427.711 390.69C429.261 400 437.581 426.09 437.581 426.09" stroke="#BCC6D9" stroke-linecap="round" stroke-linejoin="round"></path><path d="M441.92 288.28L448.26 283.41" stroke="#BCC6D9" stroke-linecap="round" stroke-linejoin="round"></path><path d="M442.221 282.68L439.561 277.96" stroke="#BCC6D9" stroke-linecap="round" stroke-linejoin="round"></path><path d="M431.16 320.42C431.16 320.42 436.47 316.42 441.92 312.42" stroke="#BCC6D9" stroke-linecap="round" stroke-linejoin="round"></path><path d="M433.531 311.39C430.945 306.536 427.879 301.953 424.381 297.71" stroke="#BCC6D9" stroke-linecap="round" stroke-linejoin="round"></path><path d="M433.811 356.24C436.841 350.656 440.668 345.543 445.171 341.06" stroke="#BCC6D9" stroke-linecap="round" stroke-linejoin="round"></path><path d="M432.78 362.14C431.171 358.349 429.248 354.7 427.03 351.23C423.94 346.66 423.49 346.07 423.49 346.07" stroke="#BCC6D9" stroke-linecap="round" stroke-linejoin="round"></path><path d="M427.711 390.68C429.053 387.338 430.651 384.105 432.491 381.01C434.328 378.141 436.399 375.429 438.681 372.9" stroke="#BCC6D9" stroke-linecap="round" stroke-linejoin="round"></path><path d="M433.549 412.43C433.243 409.244 433.792 406.034 435.139 403.13C437.349 398.85 439.859 393.25 440.889 391.04" stroke="#BCC6D9" stroke-linecap="round" stroke-linejoin="round"></path><path d="M404.97 338.075L404.323 334.378L404.323 334.377L404.322 334.377L404.322 334.377L404.321 334.365C404.319 334.353 404.317 334.33 404.314 334.297C404.309 334.233 404.303 334.129 404.305 333.988C404.309 333.706 404.343 333.275 404.469 332.707C404.72 331.572 405.339 329.882 406.829 327.746C408.35 325.567 409.611 323.86 410.492 322.698C410.841 322.237 411.131 321.861 411.353 321.577C411.374 321.632 411.397 321.69 411.419 321.751C411.64 322.337 411.905 323.16 412.086 324.11C412.45 326.021 412.459 328.365 411.174 330.332C409.304 333.066 407.23 335.654 404.97 338.075Z" fill="#BCC6D9" stroke="#BCC6D9"></path><path d="M419.556 337.117C419.578 337.172 419.6 337.23 419.623 337.29C419.844 337.875 420.11 338.698 420.291 339.646C420.656 341.556 420.665 343.899 419.376 345.872C417.507 348.604 415.433 351.19 413.172 353.606L412.525 349.919L412.524 349.918L412.523 349.907C412.521 349.894 412.519 349.872 412.516 349.839C412.511 349.774 412.506 349.67 412.508 349.529C412.513 349.248 412.549 348.816 412.675 348.248C412.929 347.113 413.55 345.422 415.041 343.286C416.562 341.107 417.821 339.399 418.699 338.238C419.047 337.777 419.335 337.402 419.556 337.117Z" fill="#BCC6D9" stroke="#BCC6D9"></path><path d="M405.403 342.688C402.319 341.488 399.331 340.054 396.464 338.4C394.441 337.175 393.427 335.056 392.924 333.176C392.674 332.241 392.555 331.384 392.499 330.761C392.493 330.701 392.488 330.643 392.484 330.587C392.808 330.751 393.233 330.969 393.748 331.236C395.048 331.912 396.926 332.909 399.236 334.197C401.498 335.457 402.786 336.703 403.503 337.612C403.862 338.067 404.08 338.44 404.206 338.692C404.269 338.818 404.309 338.914 404.332 338.974C404.344 339.005 404.352 339.026 404.356 339.038L404.359 339.05L404.36 339.05L404.36 339.05L405.403 342.688Z" fill="#BCC6D9" stroke="#BCC6D9"></path><path d="M414.208 357.41L415.634 360.952C412.44 360.084 409.316 358.976 406.288 357.635C404.15 356.624 402.921 354.62 402.225 352.804C401.879 351.9 401.671 351.061 401.551 350.448C401.539 350.387 401.528 350.328 401.517 350.272C401.857 350.4 402.302 350.569 402.843 350.78C404.205 351.309 406.175 352.097 408.605 353.13C410.984 354.141 412.395 355.243 413.204 356.071C413.609 356.485 413.865 356.833 414.017 357.07C414.093 357.189 414.143 357.28 414.173 357.338C414.188 357.367 414.198 357.387 414.203 357.399L414.208 357.41L414.208 357.41Z" fill="#BCC6D9" stroke="#BCC6D9"></path><path d="M417.279 382.473C414.34 380.951 411.519 379.212 408.84 377.269C406.961 375.831 406.178 373.614 405.877 371.69C405.728 370.734 405.701 369.869 405.711 369.243C405.712 369.181 405.713 369.121 405.715 369.064C406.021 369.26 406.421 369.519 406.908 369.839C408.13 370.643 409.893 371.827 412.053 373.349C414.168 374.839 415.316 376.212 415.932 377.19C416.24 377.68 416.416 378.073 416.515 378.336C416.564 378.468 416.593 378.567 416.61 378.63C416.618 378.661 416.624 378.683 416.626 378.696L416.629 378.707L416.629 378.708C416.629 378.708 416.629 378.708 416.629 378.708L417.279 382.473Z" fill="#BCC6D9" stroke="#BCC6D9"></path><path d="M418.556 383.628L418.556 383.628L418.556 383.628L418.552 383.616C418.549 383.604 418.543 383.582 418.536 383.55C418.521 383.487 418.501 383.385 418.483 383.246C418.447 382.967 418.42 382.536 418.464 381.958C418.553 380.804 418.927 379.053 420.105 376.747C421.308 374.392 422.305 372.523 423.002 371.244C423.276 370.742 423.504 370.33 423.679 370.016C423.706 370.064 423.734 370.114 423.763 370.167C424.064 370.715 424.444 371.492 424.758 372.406C425.39 374.246 425.732 376.57 424.738 378.715C423.281 381.684 421.601 384.538 419.711 387.252L418.556 383.628L418.556 383.628L418.556 383.628Z" fill="#BCC6D9" stroke="#BCC6D9"></path><path d="M436.297 394.747C436.302 394.808 436.307 394.871 436.312 394.937C436.359 395.56 436.382 396.424 436.288 397.386C436.098 399.322 435.445 401.578 433.649 403.117C431.089 405.216 428.372 407.115 425.522 408.797L425.956 405.061L425.956 405.061L425.958 405.049C425.96 405.036 425.964 405.014 425.971 404.981C425.984 404.917 426.009 404.816 426.051 404.681C426.135 404.41 426.29 404.005 426.571 403.493C427.132 402.472 428.201 401.021 430.224 399.389C432.288 397.724 433.977 396.444 435.149 395.58C435.617 395.235 436.003 394.957 436.297 394.747Z" fill="#BCC6D9" stroke="#BCC6D9"></path><path d="M412.965 388.923C413.272 389.119 413.674 389.379 414.161 389.699C415.385 390.503 417.148 391.687 419.303 393.209C421.413 394.698 422.561 396.072 423.178 397.05C423.487 397.541 423.665 397.934 423.764 398.197C423.813 398.329 423.843 398.429 423.86 398.491C423.869 398.523 423.874 398.545 423.877 398.558L423.879 398.569L424.529 402.333C421.588 400.813 418.767 399.069 416.09 397.119C414.211 395.687 413.428 393.472 413.127 391.549C412.978 390.593 412.951 389.729 412.961 389.103C412.962 389.041 412.963 388.98 412.965 388.923Z" fill="#BCC6D9" stroke="#BCC6D9"></path><path d="M415.7 400.669C415.945 400.935 416.265 401.286 416.652 401.716C417.628 402.801 419.032 404.392 420.739 406.413C422.409 408.391 423.173 410.013 423.521 411.119C423.696 411.673 423.767 412.1 423.796 412.38C423.81 412.52 423.814 412.624 423.814 412.69C423.814 412.722 423.813 412.745 423.813 412.758L423.812 412.77C423.812 412.771 423.812 412.771 423.812 412.771L423.495 416.565C421.035 414.354 418.746 411.958 416.651 409.397C415.194 407.545 414.997 405.202 415.192 403.26C415.289 402.295 415.481 401.449 415.65 400.844C415.667 400.783 415.683 400.725 415.7 400.669Z" fill="#BCC6D9" stroke="#BCC6D9"></path><path d="M403.381 333.85C404.044 336.558 404.852 339.228 405.801 341.85C408.571 349.13 413.051 353.36 415.691 359.92C418.331 366.48 415.691 375.92 418.291 384.51C420.891 393.1 425.171 397.32 425.211 403.32C425.251 409.32 422.881 426 422.881 426" stroke="#BCC6D9" stroke-linecap="round" stroke-linejoin="round"></path><path d="M405.18 340.66L400.67 338.29" stroke="#BCC6D9" stroke-linecap="round" stroke-linejoin="round"></path><path d="M404.381 337.17L405.541 333.93" stroke="#BCC6D9" stroke-linecap="round" stroke-linejoin="round"></path><path d="M415.421 359.64C415.421 359.64 411.651 357.72 407.801 355.82" stroke="#BCC6D9" stroke-linecap="round" stroke-linejoin="round"></path><path d="M412.82 353.91C414.02 350.713 415.485 347.622 417.2 344.67" stroke="#BCC6D9" stroke-linecap="round" stroke-linejoin="round"></path><path d="M417.61 382.39C415.101 379.219 412.147 376.427 408.84 374.1" stroke="#BCC6D9" stroke-linecap="round" stroke-linejoin="round"></path><path d="M418.93 386C419.526 383.447 420.336 380.948 421.35 378.53C422.79 375.33 423.01 374.92 423.01 374.92" stroke="#BCC6D9" stroke-linecap="round" stroke-linejoin="round"></path><path d="M425 407.88C426.466 406.074 428.089 404.401 429.85 402.88C430.968 402.052 432.018 401.135 432.99 400.14" stroke="#BCC6D9" stroke-linecap="round" stroke-linejoin="round"></path><path d="M425.21 403.32C424.004 401.372 422.65 399.52 421.16 397.78C419.696 396.183 418.105 394.708 416.4 393.37" stroke="#BCC6D9" stroke-linecap="round" stroke-linejoin="round"></path><path d="M423.91 417.6C423.757 415.569 423.067 413.616 421.91 411.94C420.06 409.5 417.91 406.26 416.99 404.94" stroke="#BCC6D9" stroke-linecap="round" stroke-linejoin="round"></path><path d="M415.451 423.84H444.141V438.67C444.141 439.33 443.879 439.964 443.412 440.431C442.945 440.898 442.312 441.16 441.651 441.16H417.941C417.281 441.16 416.647 440.898 416.18 440.431C415.714 439.964 415.451 439.33 415.451 438.67V423.84Z" fill="#BCC6D9" stroke="#BCC6D9" stroke-linecap="round" stroke-linejoin="round"></path><path d="M77.35 298.161L77.3501 298.161C77.3501 298.161 77.35 298.162 77.35 298.162L77.3331 303.598C73.6994 300.866 70.2823 297.856 67.1127 294.596C64.9224 292.232 64.396 289.084 64.44 286.463C64.4619 285.159 64.6251 284.004 64.7831 283.176C64.8205 282.98 64.8575 282.802 64.8922 282.646C65.2714 282.99 65.819 283.492 66.5138 284.14C67.9451 285.477 70.0009 287.438 72.4965 289.934C74.9533 292.39 76.1646 294.481 76.7626 295.935C77.0619 296.663 77.2086 297.234 77.2806 297.615C77.3166 297.806 77.334 297.949 77.3423 298.042C77.3465 298.088 77.3484 298.121 77.3493 298.141L77.35 298.161C77.35 298.161 77.35 298.161 77.35 298.161Z" fill="#BCC6D9" stroke="#BCC6D9"></path><path d="M70.1098 325.906C66.468 323.167 63.0452 320.148 59.8728 316.876C57.6821 314.508 57.1558 311.359 57.1997 308.74C57.2217 307.436 57.3849 306.282 57.5428 305.455C57.5797 305.261 57.6163 305.086 57.6506 304.931C58.03 305.279 58.5776 305.786 59.2722 306.439C60.7039 307.786 62.7602 309.758 65.2563 312.254C67.7132 314.711 68.9245 316.799 69.5225 318.25C69.8217 318.977 69.9685 319.547 70.0404 319.927C70.0764 320.117 70.0938 320.26 70.1021 320.352C70.1063 320.398 70.1082 320.431 70.1091 320.451L70.1098 320.471C70.1098 320.471 70.1098 320.472 70.1098 320.472V325.906Z" fill="#BCC6D9" stroke="#BCC6D9"></path><path d="M77.4881 309.705C81.3779 307.374 85.0817 304.744 88.5662 301.84C90.9981 299.717 91.8554 296.641 92.0889 294.032C92.2051 292.733 92.1647 291.568 92.095 290.729C92.0786 290.531 92.0606 290.351 92.0426 290.193C91.6324 290.494 91.0406 290.932 90.2882 291.5C88.7308 292.676 86.4851 294.408 83.7348 296.629C81.0271 298.816 79.6015 300.766 78.8541 302.147C78.4801 302.838 78.2746 303.389 78.1634 303.76C78.1078 303.945 78.0757 304.085 78.0578 304.176C78.0489 304.221 78.0435 304.254 78.0406 304.273L78.0379 304.293C78.0378 304.293 78.0378 304.293 78.0378 304.293M77.4881 309.705L78.0378 304.293M77.4881 309.705L78.0376 304.295C78.0376 304.295 78.0377 304.294 78.0377 304.294C78.0377 304.294 78.0377 304.294 78.0378 304.293M77.4881 309.705L78.0378 304.293" fill="#BCC6D9" stroke="#BCC6D9"></path><path d="M69.2583 330.707C69.2584 330.707 69.2586 330.706 69.2587 330.705L69.2636 330.686C69.2686 330.667 69.2775 330.635 69.2912 330.591C69.3187 330.502 69.3657 330.366 69.4408 330.187C69.5909 329.829 69.8539 329.302 70.2986 328.653C71.1872 327.356 72.808 325.567 75.7217 323.68C78.6822 321.763 81.1005 320.265 82.778 319.247C83.5895 318.755 84.2276 318.375 84.6698 318.114C84.6708 318.272 84.6697 318.45 84.6652 318.646C84.6459 319.488 84.5631 320.649 84.3106 321.928C83.8035 324.497 82.6272 327.464 79.9873 329.317C76.2096 331.843 72.2415 334.071 68.1191 335.981L69.2582 330.708C69.2582 330.708 69.2582 330.707 69.2583 330.707Z" fill="#BCC6D9" stroke="#BCC6D9"></path><path d="M70.9206 359.331C70.9206 359.331 70.9206 359.332 70.9206 359.332V359.332L70.9206 359.333L70.9206 359.333L70.8953 364.763C74.5264 362.036 77.9378 359.028 81.0979 355.766C83.2934 353.402 83.8222 350.254 83.7794 347.633C83.7581 346.329 83.5952 345.174 83.4374 344.346C83.4005 344.152 83.3639 343.976 83.3295 343.821C82.9551 344.164 82.4167 344.662 81.7333 345.305C80.3142 346.641 78.2705 348.602 75.7745 351.103C73.3174 353.565 72.106 355.656 71.508 357.109C71.2087 357.836 71.062 358.406 70.99 358.787C70.954 358.977 70.9367 359.12 70.9283 359.212C70.9242 359.258 70.9222 359.291 70.9213 359.311L70.9206 359.331ZM70.9206 359.331C70.9206 359.33 70.9206 359.33 70.4206 359.33L70.9206 359.331Z" fill="#BCC6D9" stroke="#BCC6D9"></path><path d="M69.0826 371.652C65.8735 368.437 62.9195 364.976 60.2478 361.301C58.4165 358.645 58.3429 355.45 58.7584 352.862C58.9653 351.573 59.2907 350.453 59.5645 349.656C59.6287 349.469 59.6899 349.3 59.746 349.151C60.0685 349.545 60.5321 350.115 61.1189 350.851C62.336 352.376 64.0827 354.609 66.1993 357.439C68.2829 360.226 69.1849 362.466 69.57 363.989C69.7627 364.751 69.8267 365.335 69.8436 365.722C69.8521 365.915 69.8489 366.059 69.8441 366.151C69.8416 366.197 69.8388 366.23 69.8369 366.25L69.8347 366.269C69.8346 366.27 69.8345 366.271 69.8345 366.271L69.8345 366.271L69.0826 371.652Z" fill="#BCC6D9" stroke="#BCC6D9"></path><path d="M65.8922 392.564C69.5242 389.833 72.9398 386.825 76.108 383.566C78.2983 381.202 78.8247 378.054 78.7807 375.433C78.7588 374.129 78.5956 372.974 78.4376 372.146C78.4004 371.951 78.3635 371.774 78.329 371.618C77.9527 371.962 77.4106 372.461 76.7227 373.106C75.2988 374.441 73.2503 376.402 70.7545 378.903C68.2974 381.365 67.086 383.456 66.488 384.909C66.1887 385.636 66.042 386.206 65.97 386.587C65.934 386.777 65.9167 386.92 65.9083 387.012C65.9042 387.058 65.9022 387.091 65.9014 387.111L65.8922 392.564ZM65.8922 392.564L65.9006 387.133L65.9006 387.132L65.8922 392.564Z" fill="#BCC6D9" stroke="#BCC6D9"></path><path d="M76.1748 389.572C76.6848 388.768 77.0892 388.144 77.37 387.716C77.4416 387.856 77.5205 388.015 77.6042 388.192C77.9623 388.947 78.4063 390.015 78.7505 391.265C79.4417 393.776 79.7124 396.951 78.1723 399.818C75.9347 403.77 73.3944 407.541 70.5744 411.099L69.2243 405.875C69.2243 405.875 69.2243 405.875 69.2242 405.875C69.2242 405.875 69.2242 405.875 69.2242 405.875C69.2241 405.875 69.224 405.874 69.2238 405.873L69.2194 405.854C69.2152 405.835 69.2087 405.802 69.201 405.757C69.1858 405.666 69.1661 405.523 69.1526 405.33C69.1256 404.945 69.1228 404.357 69.2281 403.578C69.4385 402.023 70.0823 399.695 71.8415 396.693C73.6282 393.643 75.1251 391.226 76.1748 389.572Z" fill="#BCC6D9" stroke="#BCC6D9"></path><path d="M78.3003 297.24C78.0513 300.963 77.5939 304.668 76.9303 308.34C74.9303 318.55 70.0103 325.14 68.0403 334.34C66.0703 343.54 71.7403 355.46 70.2203 367.34C68.7003 379.22 64.0803 385.78 65.4003 393.69C66.7203 401.6 73.8003 423.8 73.8003 423.8" stroke="#BCC6D9" stroke-linecap="round" stroke-linejoin="round"></path><path d="M77.4902 306.62L82.8802 302.48" stroke="#BCC6D9" stroke-linecap="round" stroke-linejoin="round"></path><path d="M77.7405 301.85L75.4805 297.84" stroke="#BCC6D9" stroke-linecap="round" stroke-linejoin="round"></path><path d="M68.3398 334C68.3398 334 72.8498 330.61 77.4898 327.23" stroke="#BCC6D9" stroke-linecap="round" stroke-linejoin="round"></path><path d="M70.3494 326.27C68.1627 322.145 65.5699 318.25 62.6094 314.64" stroke="#BCC6D9" stroke-linecap="round" stroke-linejoin="round"></path><path d="M70.6094 364.41C73.1876 359.662 76.4415 355.313 80.2694 351.5" stroke="#BCC6D9" stroke-linecap="round" stroke-linejoin="round"></path><path d="M69.7101 369.43C68.3438 366.207 66.7115 363.103 64.8301 360.15C62.1901 356.26 61.8301 355.76 61.8301 355.76" stroke="#BCC6D9" stroke-linecap="round" stroke-linejoin="round"></path><path d="M65.4004 393.69C66.545 390.852 67.9022 388.104 69.4604 385.47C71.0258 383.033 72.7884 380.729 74.7304 378.58" stroke="#BCC6D9" stroke-linecap="round" stroke-linejoin="round"></path><path d="M70.3697 412.19C70.108 409.48 70.574 406.75 71.7197 404.28C73.5997 400.64 75.7197 395.88 76.6097 394" stroke="#BCC6D9" stroke-linecap="round" stroke-linejoin="round"></path><path d="M51.2738 342.393C49.7163 344.672 47.9907 346.831 46.1119 348.852L45.5834 345.81L45.5824 345.802C45.5812 345.792 45.5792 345.774 45.5771 345.748C45.573 345.695 45.5688 345.609 45.5709 345.492C45.5751 345.257 45.6047 344.896 45.7115 344.419C45.9248 343.468 46.4486 342.048 47.7088 340.258C49.0002 338.423 50.0719 336.972 50.8202 335.981C51.077 335.641 51.2957 335.355 51.472 335.126C51.4744 335.133 51.4768 335.139 51.4793 335.146C51.6655 335.64 51.8897 336.336 52.0424 337.139C52.35 338.755 52.3544 340.729 51.2738 342.393Z" fill="#BCC6D9" stroke="#BCC6D9"></path><path d="M57.8042 349.185C58.0597 348.846 58.2772 348.56 58.4527 348.33C58.4548 348.336 58.4568 348.341 58.4589 348.347C58.6451 348.843 58.8694 349.539 59.0221 350.343C59.3298 351.962 59.3341 353.939 58.2536 355.603C56.696 357.882 54.9705 360.041 53.0916 362.062L52.5628 359.018L52.5618 359.01C52.5605 359 52.5584 358.982 52.5563 358.956C52.552 358.903 52.5474 358.817 52.5492 358.7C52.5528 358.466 52.5814 358.105 52.6876 357.629C52.8996 356.678 53.4231 355.259 54.688 353.468C55.9848 351.633 57.0569 350.179 57.8042 349.185Z" fill="#BCC6D9" stroke="#BCC6D9"></path><path d="M35.539 342.745C35.7972 342.875 36.1185 343.038 36.4975 343.233C37.6019 343.802 39.1971 344.645 41.1569 345.737C43.0688 346.802 44.1542 347.853 44.7565 348.616C45.0581 348.998 45.2403 349.31 45.3449 349.519C45.3973 349.624 45.4304 349.703 45.4494 349.752C45.4589 349.777 45.4649 349.794 45.468 349.803L45.4703 349.81L46.318 352.815C43.7483 351.8 41.2574 350.595 38.8658 349.21C37.1722 348.176 36.3206 346.394 35.8972 344.804C35.6869 344.014 35.5874 343.291 35.5406 342.764C35.5401 342.758 35.5395 342.751 35.539 342.745Z" fill="#BCC6D9" stroke="#BCC6D9"></path><path d="M55.0095 368.309C52.3506 367.575 49.7494 366.645 47.2274 365.525C45.4336 364.679 44.3974 362.995 43.8075 361.457C43.5145 360.693 43.3387 359.983 43.2363 359.464C43.2352 359.458 43.234 359.452 43.2329 359.446C43.4997 359.547 43.8307 359.675 44.2213 359.827C45.3732 360.277 47.0434 360.947 49.1132 361.83C51.1324 362.691 52.3262 363.625 53.0079 364.323C53.3493 364.673 53.5641 364.965 53.6908 365.162C53.7542 365.261 53.7956 365.337 53.8198 365.384C53.8319 365.408 53.8397 365.424 53.8438 365.433L53.8471 365.44L55.0095 368.309Z" fill="#BCC6D9" stroke="#BCC6D9"></path><path d="M46.7736 375.476C47.0168 375.631 47.3201 375.825 47.6784 376.058C48.7138 376.731 50.2087 377.728 52.0432 379.019C53.8334 380.279 54.8034 381.439 55.3231 382.263C55.5833 382.675 55.732 383.006 55.8144 383.225C55.8557 383.335 55.8804 383.417 55.8942 383.469C55.9011 383.494 55.9053 383.512 55.9074 383.522L55.909 383.529L56.4378 386.581C53.9875 385.306 51.6346 383.851 49.3984 382.228C47.8051 381.025 47.1484 379.173 46.9015 377.558C46.7788 376.756 46.7604 376.03 46.7728 375.505C46.7731 375.495 46.7733 375.486 46.7736 375.476ZM55.9091 383.53C55.9092 383.53 55.9092 383.53 55.909 383.53L55.9091 383.53Z" fill="#BCC6D9" stroke="#BCC6D9"></path><path d="M62.8285 383.495C61.6137 385.968 60.2154 388.346 58.6455 390.609L57.6864 387.679L57.6844 387.672C57.6817 387.662 57.6771 387.645 57.6712 387.619C57.6595 387.567 57.643 387.483 57.6282 387.367C57.5986 387.134 57.5759 386.773 57.6132 386.287C57.6878 385.316 58.0029 383.838 58.9953 381.887C60.0125 379.887 60.8673 378.3 61.4674 377.213C61.6735 376.84 61.8496 376.525 61.9918 376.274C61.9952 376.28 61.9986 376.286 62.002 376.293C62.2568 376.756 62.5777 377.412 62.8431 378.185C63.3774 379.741 63.6623 381.695 62.8285 383.495Z" fill="#BCC6D9" stroke="#BCC6D9"></path><path d="M72.6439 397.381C72.6445 397.388 72.645 397.395 72.6455 397.402C72.6859 397.928 72.7065 398.658 72.6281 399.471C72.4701 401.107 71.919 403.003 70.4083 404.297C68.2704 406.052 66.0048 407.646 63.6305 409.063L63.9858 405.971L63.987 405.963C63.9886 405.953 63.9917 405.935 63.9971 405.909C64.0079 405.857 64.0279 405.774 64.0627 405.662C64.1324 405.438 64.262 405.099 64.4983 404.672C64.9702 403.819 65.8729 402.604 67.5902 401.242C69.3508 399.845 70.7866 398.756 71.7816 398.016C72.1223 397.763 72.4113 397.551 72.6439 397.381Z" fill="#BCC6D9" stroke="#BCC6D9"></path><path d="M52.9887 392.37C53.231 392.524 53.5324 392.717 53.8879 392.948C54.9233 393.621 56.4182 394.618 58.2527 395.909C60.0429 397.169 61.0129 398.329 61.5326 399.153C61.7928 399.565 61.9415 399.896 62.0239 400.115C62.0652 400.225 62.0899 400.307 62.1037 400.359C62.1106 400.384 62.1148 400.402 62.1169 400.412L62.1185 400.419L62.6566 403.512C60.2062 402.238 57.8537 400.783 55.6189 399.159C54.0402 397.956 53.3803 396.094 53.127 394.467C53.0012 393.659 52.9789 392.928 52.9882 392.398C52.9884 392.389 52.9885 392.379 52.9887 392.37ZM62.1187 400.42C62.1187 400.42 62.1187 400.42 62.1186 400.42L62.1187 400.42Z" fill="#BCC6D9" stroke="#BCC6D9"></path><path d="M61.7554 415.553C59.7088 413.703 57.8023 411.702 56.052 409.569C54.8435 408 54.6766 406.03 54.8395 404.393C54.9204 403.58 55.081 402.868 55.2216 402.359C55.2231 402.353 55.2247 402.348 55.2263 402.342C55.4214 402.553 55.6632 402.817 55.9473 403.132C56.7787 404.051 57.9722 405.402 59.418 407.122C60.8291 408.8 61.4728 410.171 61.7665 411.099C61.9135 411.565 61.9737 411.922 61.9978 412.154C62.0098 412.271 62.0129 412.357 62.0132 412.41C62.0134 412.436 62.0129 412.454 62.0125 412.464L62.0122 412.472L61.7554 415.553Z" fill="#BCC6D9" stroke="#BCC6D9"></path><path d="M44.7109 345.37C45.2766 347.675 45.9643 349.948 46.7709 352.18C49.1209 358.37 52.9409 361.96 55.1809 367.54C57.4209 373.12 55.1809 381.18 57.3909 388.45C59.6009 395.72 63.2409 399.35 63.2709 404.45C63.3009 409.55 61.2709 423.74 61.2709 423.74" stroke="#BCC6D9" stroke-linecap="round" stroke-linejoin="round"></path><path d="M46.2402 351.16L42.4102 349.15" stroke="#BCC6D9" stroke-linecap="round" stroke-linejoin="round"></path><path d="M45.5703 348.2L46.5503 345.44" stroke="#BCC6D9" stroke-linecap="round" stroke-linejoin="round"></path><path d="M54.9507 367.3C54.9507 367.3 51.7507 365.67 48.4707 364.05" stroke="#BCC6D9" stroke-linecap="round" stroke-linejoin="round"></path><path d="M52.7402 362.43C53.7646 359.712 55.0122 357.083 56.4702 354.57" stroke="#BCC6D9" stroke-linecap="round" stroke-linejoin="round"></path><path d="M56.8409 386.65C54.7043 383.97 52.1916 381.612 49.3809 379.65" stroke="#BCC6D9" stroke-linecap="round" stroke-linejoin="round"></path><path d="M57.9297 389.7C58.4398 387.53 59.1288 385.406 59.9897 383.35C61.2197 380.63 61.3997 380.27 61.3997 380.27" stroke="#BCC6D9" stroke-linecap="round" stroke-linejoin="round"></path><path d="M63.0996 408.32C64.3433 406.777 65.7221 405.348 67.2196 404.05C68.1706 403.346 69.0635 402.567 69.8896 401.72" stroke="#BCC6D9" stroke-linecap="round" stroke-linejoin="round"></path><path d="M63.2701 404.45C62.2466 402.794 61.0965 401.219 59.8301 399.74C58.602 398.379 57.2642 397.122 55.8301 395.98" stroke="#BCC6D9" stroke-linecap="round" stroke-linejoin="round"></path><path d="M62.1693 416.59C62.0346 414.861 61.4446 413.198 60.4593 411.77C58.8893 409.7 57.0293 406.94 56.2793 405.86" stroke="#BCC6D9" stroke-linecap="round" stroke-linejoin="round"></path><path d="M53.4512 423.84H82.1412V438.67C82.1412 439 82.0755 439.327 81.9479 439.632C81.8203 439.937 81.6333 440.213 81.3978 440.445C81.1623 440.677 80.8831 440.859 80.5763 440.982C80.2696 441.105 79.9415 441.165 79.6112 441.16H55.9412C55.2808 441.16 54.6474 440.898 54.1805 440.431C53.7135 439.964 53.4512 439.33 53.4512 438.67V423.84Z" fill="#BCC6D9" stroke="#BCC6D9" stroke-linecap="round" stroke-linejoin="round"></path><path opacity="0.05" d="M373.9 467C402.801 467 426.23 461.717 426.23 455.2C426.23 448.683 402.801 443.4 373.9 443.4C344.999 443.4 321.57 448.683 321.57 455.2C321.57 461.717 344.999 467 373.9 467Z" fill="#3B62B2" stroke="#003549" stroke-linecap="round" stroke-linejoin="round"></path><path d="M333.55 188.48C333.55 188.48 326.47 192.81 326.55 194.71C326.63 196.61 323.91 231.26 323.6 235.59C323.29 239.92 319.17 248.86 318.85 252.92C318.53 256.98 319.55 261.05 320.74 262.92C321.93 264.79 326.3 270.77 326.3 270.77L338.05 252.62C338.339 248.657 338.399 244.68 338.231 240.71C338.051 232.06 333.55 188.48 333.55 188.48Z" fill="white" stroke="#003549" stroke-linecap="round" stroke-linejoin="round"></path><path d="M378.76 102.62C378.76 102.62 366.26 101.82 359.14 110.49C352.02 119.16 353.55 132.42 353.5 136.49C353.45 140.56 341.36 152.49 342.7 157.35C344.04 162.21 347.6 162.76 346.46 166.82C345.32 170.88 337.88 173.32 338.96 178.47C340.04 183.62 343.96 190.92 343.96 190.92L415.96 191.41C415.96 191.41 418.53 183.83 415.79 178.14C413.05 172.45 409.16 170.57 409.79 167.86C410.42 165.15 413.9 158.65 412.56 153.78C411.22 148.91 406.56 147.56 406.07 138.89C405.58 130.22 404.3 115.89 397.42 108.89C390.54 101.89 378.76 102.62 378.76 102.62Z" fill="#003549" stroke="#003549" stroke-linecap="round" stroke-linejoin="round"></path><path d="M356.621 436.73C354.41 440.991 351.726 444.989 348.621 448.65C344.021 453.8 339.561 456.51 339.711 459.22C339.861 461.93 349.901 462.46 355.211 460.56C360.521 458.66 364.381 454.87 365.451 454.56C366.521 454.25 369.511 454.56 369.581 450.76C369.651 446.96 369.071 436.14 369.071 436.14L356.621 436.73Z" fill="white" stroke="#003549" stroke-linecap="round" stroke-linejoin="round"></path><path d="M355.191 460.56C360.511 458.66 364.361 454.87 365.431 454.56C366.501 454.25 369.491 454.56 369.561 450.76C369.561 448.76 369.451 444.76 369.311 441.49C368.524 442.966 367.359 444.206 365.936 445.084C364.513 445.963 362.883 446.448 361.211 446.49C361.211 446.49 361.111 444.59 358.211 441.35C356.341 439.23 354.451 440.9 353.351 442.35L352.461 443.69L352.391 443.82C351.237 445.523 349.974 447.149 348.611 448.69C344.011 453.84 339.551 456.55 339.701 459.26C339.851 461.97 349.881 462.46 355.191 460.56Z" fill="white" stroke="#003549" stroke-linecap="round" stroke-linejoin="round"></path><path d="M393.671 436.71C396.358 440.986 399.474 444.976 402.971 448.62C408.121 453.76 412.871 456.46 412.971 459.17C413.071 461.88 403.131 462.42 397.611 460.53C392.091 458.64 387.831 454.85 386.741 454.58C385.651 454.31 382.671 454.58 382.201 450.8C381.731 447.02 381.141 436.18 381.141 436.18L393.671 436.71Z" fill="white" stroke="#003549" stroke-linecap="round" stroke-linejoin="round"></path><path d="M397.65 460.53C392.14 458.64 387.87 454.85 386.78 454.58C385.69 454.31 382.71 454.58 382.24 450.8C381.99 448.8 381.71 444.8 381.5 441.52C382.425 442.986 383.695 444.203 385.2 445.065C386.704 445.926 388.397 446.405 390.13 446.46C390.13 446.46 390.03 444.56 392.56 441.31C394.21 439.2 396.28 440.86 397.56 442.31C397.89 442.75 398.23 443.19 398.56 443.65L398.65 443.78C399.994 445.48 401.429 447.106 402.95 448.65C408.1 453.79 412.85 456.49 412.95 459.2C413.05 461.91 403.17 462.42 397.65 460.53Z" fill="white" stroke="#003549" stroke-linecap="round" stroke-linejoin="round"></path><path d="M334.871 293.8C334.871 293.8 336.541 350.11 338.761 361.21C340.981 372.31 350.891 435.93 350.891 435.93C353.92 437.212 357.182 437.852 360.471 437.81H371.301L372.301 390.43L372.671 321.66L378.101 438.07C378.101 438.07 393.021 438.6 394.631 438.33C396.241 438.06 397.581 437.79 397.581 437.79L407.171 364.14L412.661 315.14L412.961 295.65C412.961 295.65 367.121 294.06 353.801 292.98C340.481 291.9 335.001 291.63 335.001 291.63L334.871 293.8Z" fill="#3B62B2" stroke="#003549" stroke-linecap="round" stroke-linejoin="round"></path><path d="M396.771 393.22C396.651 394.16 396.531 395.03 396.391 395.83" stroke="#003549" stroke-linecap="round" stroke-linejoin="round"></path><path d="M398.001 325.43C398.001 325.43 398.931 365.55 397.301 387.33" stroke="#003549" stroke-linecap="round" stroke-linejoin="round"></path><path d="M348.85 322.21C348.85 322.21 350 348.75 351.14 354.7" stroke="#003549" stroke-linecap="round" stroke-linejoin="round"></path><path d="M391.58 305.3V325.56C394.176 326.259 396.83 326.718 399.51 326.93C403.62 327.2 411.29 326.93 411.29 326.93L411.84 319.26L391.58 305.3Z" fill="#003549" stroke="#003549" stroke-linecap="round" stroke-linejoin="round"></path><path d="M335.72 320.9C335.72 320.9 346.13 324.19 350.51 324.46C354.89 324.73 358.99 325.28 358.99 325.28L358.45 319.81L335.17 317.62L335.72 320.9Z" fill="#003549" stroke="#003549" stroke-linecap="round" stroke-linejoin="round"></path><path d="M367.32 167.07L359.15 176.28L336.49 192.81L341.32 293C341.32 293 359.38 297.86 374.88 299.21C390.38 300.56 410.31 297.01 410.31 297.01L407.38 192.01C407.38 192.01 398.56 179.01 394.04 175.5C389.52 171.99 387.45 168.74 381.46 168.2C375.47 167.66 367.32 167.07 367.32 167.07Z" fill="#3B62B2" stroke="#003549" stroke-linecap="round" stroke-linejoin="round"></path><path d="M357.841 172L333.551 188.53L337.361 249.44L336.071 255.56L325.861 267.32L330.211 287.98L328.271 317.13C328.271 317.13 337.921 320.38 344.461 321.18C349.331 321.702 354.224 321.972 359.121 321.99L359.961 282.19C359.961 282.19 363.191 216.12 363.571 213.19C363.951 210.26 367.321 167.19 367.321 167.19L357.841 172Z" fill="white" stroke="#003549" stroke-linecap="round" stroke-linejoin="round"></path><path d="M358.231 174.49L346.471 203.98L359.161 209.25L347.181 211.43L357.791 253" stroke="#003549" stroke-linecap="round" stroke-linejoin="round"></path><path d="M365.281 159.22C365.281 159.22 369.501 187.37 372.821 193.87C376.141 200.37 377.081 202.53 377.081 202.53C377.081 202.53 384.301 180.59 385.751 177.34C387.201 174.09 388.751 162.45 388.751 162.45C388.751 162.45 374.361 167.06 365.281 159.22Z" fill="white" stroke="#003549" stroke-linecap="round" stroke-linejoin="round"></path><path d="M365.281 159.22C365.281 159.22 365.661 161.78 366.281 165.53C368.391 167.14 373.981 171.12 378.111 171.33C381.261 171.49 385.261 169.45 387.921 167.82C388.401 164.87 388.731 162.45 388.731 162.45C388.731 162.45 374.361 167.06 365.281 159.22Z" fill="#003549" stroke="#003549" stroke-linecap="round" stroke-linejoin="round"></path><path d="M359.551 139.76C359.551 139.76 356.671 135.66 354.731 139.76C352.791 143.86 357.731 149.93 359.111 150.76C363.031 153.09 361.991 148.76 361.991 148.76L359.551 139.76Z" fill="white" stroke="#003549" stroke-linecap="round" stroke-linejoin="round"></path><path d="M395.32 141.53C395.32 141.53 397.75 137.29 400.13 141.29C402.51 145.29 398.22 151.58 396.94 152.47C393.28 155 393.86 150.66 393.86 150.66L395.32 141.53Z" fill="white" stroke="#003549" stroke-linecap="round" stroke-linejoin="round"></path><path d="M358.871 136.14C358.871 136.14 369.311 133.7 374.571 130.59C377.793 128.644 380.603 126.086 382.841 123.06C382.841 123.06 387.361 131.6 391.341 135.06C395.321 138.52 396.151 138.72 396.151 138.72C396.151 138.72 394.241 153.67 392.081 158.87C389.921 164.07 382.871 169.13 376.291 167.67C372.551 166.85 366.071 164.15 364.191 159.6C362.311 155.05 358.871 136.14 358.871 136.14Z" fill="white" stroke="#003549" stroke-linecap="round" stroke-linejoin="round"></path><path d="M385.511 147.63C382.271 147.71 371.421 147.73 365.821 144.35C363.576 143.043 361.475 141.505 359.551 139.76C359.751 140.76 359.991 142.01 360.251 143.31L361.471 144.2L364.531 155.76L363.101 156.07C363.402 157.252 363.766 158.417 364.191 159.56C366.071 164.11 372.551 166.81 376.291 167.63C382.861 169.08 389.891 164.05 392.071 158.86C391.556 157.852 391.404 156.697 391.641 155.59C392.271 152.32 393.051 146.59 393.051 146.59L395.281 144.59C395.401 143.86 395.501 143.16 395.601 142.52C392.901 144.39 387.841 147.57 385.511 147.63Z" fill="#3B62B2" stroke="#003549" stroke-linecap="round" stroke-linejoin="round"></path><path d="M373.601 142.8C373.601 142.8 370.111 138.56 365.531 138.95" stroke="#003549" stroke-linecap="round" stroke-linejoin="round"></path><path d="M382.59 143.64C383.703 142.469 385.087 141.589 386.619 141.077C388.151 140.564 389.786 140.435 391.38 140.7" stroke="#003549" stroke-linecap="round" stroke-linejoin="round"></path><path d="M363.52 136.83C363.52 136.83 368.52 134.83 372.95 135.77" stroke="#003549" stroke-linecap="round" stroke-linejoin="round"></path><path d="M383 136.86C384.317 136.187 385.81 135.935 387.275 136.139C388.74 136.343 390.107 136.993 391.19 138" stroke="#003549" stroke-linecap="round" stroke-linejoin="round"></path><path d="M370.241 141.41C370.264 141.564 370.256 141.72 370.218 141.871C370.18 142.022 370.112 142.163 370.019 142.288C369.926 142.412 369.81 142.517 369.676 142.596C369.543 142.676 369.395 142.728 369.241 142.75C368.928 142.715 368.64 142.562 368.436 142.322C368.232 142.083 368.126 141.774 368.141 141.46C368.117 141.306 368.124 141.149 368.161 140.998C368.199 140.847 368.266 140.705 368.359 140.58C368.452 140.455 368.57 140.35 368.704 140.271C368.838 140.192 368.987 140.141 369.141 140.12C369.453 140.157 369.739 140.311 369.943 140.55C370.147 140.789 370.253 141.096 370.241 141.41Z" fill="#003549"></path><path d="M388.35 142.71C388.376 142.864 388.372 143.022 388.335 143.175C388.299 143.327 388.232 143.47 388.138 143.596C388.045 143.721 387.926 143.826 387.791 143.904C387.655 143.982 387.505 144.032 387.35 144.05C387.038 144.017 386.75 143.866 386.545 143.628C386.341 143.391 386.235 143.083 386.25 142.77C386.223 142.616 386.227 142.458 386.264 142.306C386.3 142.153 386.367 142.01 386.461 141.885C386.554 141.759 386.673 141.654 386.808 141.576C386.944 141.498 387.094 141.448 387.25 141.43C387.562 141.463 387.849 141.614 388.054 141.852C388.258 142.09 388.364 142.397 388.35 142.71Z" fill="#003549"></path><path d="M415.281 182.74C415.281 182.74 421.111 185.44 423.281 189.74C425.451 194.04 442.801 240.63 442.721 244.15C442.641 247.67 436.901 251.73 431.521 252.28C426.141 252.83 418.301 243.08 417.131 241.46C415.961 239.84 415.751 220.88 415.751 220.88L415.281 182.74Z" fill="white" stroke="#003549" stroke-linecap="round" stroke-linejoin="round"></path><path d="M387.801 170.3L390.641 263.44L391.641 322.19C397.086 323.529 402.664 324.25 408.271 324.34C412.947 324.438 417.597 323.609 421.951 321.9C421.951 321.9 420.251 285.35 419.951 279.39C419.651 273.43 417.671 262.06 417.671 262.06L415.311 182.74C415.311 182.74 393.341 172.46 387.801 170.3Z" fill="white" stroke="#003549" stroke-linecap="round" stroke-linejoin="round"></path><path d="M394.041 175.44L404.111 208.29L394.931 210.78L403.861 215.11L392.721 250.5" fill="white"></path><path d="M394.041 175.44L404.111 208.29L394.931 210.78L403.861 215.11L392.721 250.5" stroke="#003549" stroke-linecap="round" stroke-linejoin="round"></path><path d="M401.06 205.49L388.57 265.33C388.57 265.33 397.11 268.03 403.35 268.33C409.59 268.63 422.59 268.59 422.59 268.59L435.59 212.81C435.59 212.81 410 210.36 401.06 205.49Z" fill="#003549" stroke="#003549" stroke-linecap="round" stroke-linejoin="round"></path><path d="M405.41 261.26L405.82 242.56L415.73 244.65C415.73 244.65 409.18 259.08 405.41 261.26Z" fill="white" stroke="#003549" stroke-linecap="round" stroke-linejoin="round"></path><path d="M413.001 235.8C413.001 235.8 410.361 232.02 409.511 231.2C408.661 230.38 404.461 227.96 403.651 227.96C402.841 227.96 398.491 227.69 397.651 227.69C396.811 227.69 395.861 229.59 396.721 230.4C397.581 231.21 400.571 231.48 400.571 231.48L402.621 234.48L393.371 233.67C393.371 233.67 391.831 235.3 392.181 236.67C392.442 237.598 392.777 238.504 393.181 239.38C393.146 241.368 393.249 243.356 393.491 245.33C393.851 246.96 395.491 247.5 397.741 248.85C399.991 250.2 407.521 249.39 407.521 249.39H411.001L413.001 235.8Z" fill="white" stroke="#003549" stroke-linecap="round" stroke-linejoin="round"></path><path d="M435.55 237.68L411.55 234.45C411.55 234.45 409.68 249.89 407.79 255.03C405.9 260.17 405.41 261.26 405.41 261.26C405.41 261.26 430.56 260.7 436.49 260.16C442.42 259.62 445.75 256.09 445.49 251.22C445.23 246.35 442.26 241.47 442.26 241.47" fill="white"></path><path d="M435.55 237.68L411.55 234.45C411.55 234.45 409.68 249.89 407.79 255.03C405.9 260.17 405.41 261.26 405.41 261.26C405.41 261.26 430.56 260.7 436.49 260.16C442.42 259.62 445.75 256.09 445.49 251.22C445.23 246.35 442.26 241.47 442.26 241.47" stroke="#003549" stroke-linecap="round" stroke-linejoin="round"></path><path d="M335.47 254.54C335.47 254.54 341.07 258.05 342.47 259.14C343.87 260.23 343.99 267.26 344.88 268.61C345.77 269.96 344.72 270.78 343.1 270.78C341.48 270.78 339.03 265.64 339.03 265.64L338.93 263.74L327.49 267.54L324.49 262.4C324.49 262.4 327.89 254.54 335.47 254.54Z" fill="white" stroke="#003549" stroke-linecap="round" stroke-linejoin="round"></path><path opacity="0.05" d="M128.68 467C157.581 467 181.01 461.717 181.01 455.2C181.01 448.683 157.581 443.4 128.68 443.4C99.7785 443.4 76.3496 448.683 76.3496 455.2C76.3496 461.717 99.7785 467 128.68 467Z" fill="#3B62B2" stroke="#003549" stroke-linecap="round" stroke-linejoin="round"></path><path opacity="0.05" d="M254.33 466.6C283.231 466.6 306.66 461.317 306.66 454.801C306.66 448.284 283.231 443 254.33 443C225.429 443 202 448.284 202 454.801C202 461.317 225.429 466.6 254.33 466.6Z" fill="#3B62B2" stroke="#003549" stroke-linecap="round" stroke-linejoin="round"></path><path d="M163.139 211.13V220.69L177.039 227.06C177.039 227.06 178.489 220.69 177.329 209.39L163.139 211.13Z" fill="white" stroke="#003549" stroke-linecap="round" stroke-linejoin="round"></path><path d="M94.1494 440.54C90.9679 443.271 87.9619 446.2 85.1494 449.31C81.1494 453.82 80.3694 458.31 84.0894 460.46C87.8094 462.61 93.6494 462.05 100.019 458.07C106.389 454.09 106.129 452.49 109.849 451.17C113.569 449.85 115.959 447.17 115.959 442.93C115.959 438.69 102.409 438.15 99.4894 437.93C96.5694 437.71 94.1494 440.54 94.1494 440.54Z" fill="white" stroke="#003549" stroke-linecap="round" stroke-linejoin="round"></path><path d="M115.93 442.93C115.93 442.93 109.93 445.59 107.02 448.01C104.11 450.43 98.3099 459.14 91.5299 459.14C88.0772 459.143 84.6818 458.258 81.6699 456.57C81.6743 457.375 81.8995 458.163 82.3209 458.849C82.7423 459.535 83.3438 460.092 84.0599 460.46C87.7799 462.58 93.6199 462.05 99.9899 458.07C106.36 454.09 106.1 452.49 109.82 451.17C113.54 449.85 115.93 447.18 115.93 442.93Z" stroke="#003549" stroke-linecap="round" stroke-linejoin="round"></path><path d="M161.539 440.54C164.72 443.271 167.726 446.2 170.539 449.31C174.539 453.82 175.319 458.31 171.599 460.46C167.879 462.61 162.039 462.05 155.669 458.07C149.299 454.09 149.559 452.49 145.839 451.17C142.119 449.85 139.729 447.17 139.729 442.93C139.729 438.69 153.279 438.15 156.199 437.93C159.119 437.71 161.539 440.54 161.539 440.54Z" fill="white" stroke="#003549" stroke-linecap="round" stroke-linejoin="round"></path><path d="M139.76 442.93C139.76 442.93 145.76 445.59 148.67 448.01C151.58 450.43 157.38 459.14 164.16 459.14C167.612 459.143 171.008 458.258 174.02 456.57C174.015 457.375 173.79 458.163 173.369 458.849C172.947 459.535 172.346 460.092 171.63 460.46C167.91 462.58 162.07 462.05 155.7 458.07C149.33 454.09 149.59 452.49 145.87 451.17C142.15 449.85 139.76 447.18 139.76 442.93Z" stroke="#003549" stroke-linecap="round" stroke-linejoin="round"></path><path d="M86.4492 289.7C86.4492 289.7 88.0392 349.45 88.8392 358.22C89.6392 366.99 91.9992 386.9 91.9992 388C91.9992 389.1 93.3192 433.15 93.3192 433.15L90.9292 437.15L91.7292 442.73L102.349 444.85C107.659 445.91 114.569 447.51 115.629 446.45C116.689 445.39 116.959 443.26 117.489 440.34C118.019 437.42 119.079 432.1 118.019 427.86C116.959 423.62 119.349 378.46 119.619 377.4C119.889 376.34 125.999 332.72 125.999 332.72C125.999 332.72 129.999 368.58 132.899 379.46C135.799 390.34 134.759 406.55 135.819 412.92C136.879 419.29 139.009 440.81 139.279 442.4C139.549 443.99 140.069 446.4 140.069 446.4C140.069 446.4 153.349 444.54 155.739 443.47C158.162 442.577 160.649 441.869 163.179 441.35C163.179 441.35 163.969 426.21 162.909 420.1C162.137 415.807 161.692 411.461 161.579 407.1C161.579 405.24 162.909 346.29 162.909 346.29L161.579 289.19C161.579 289.19 125.729 292.91 111.919 290.25C98.1092 287.59 86.7192 286 86.7192 286L86.4492 289.7Z" fill="#3B62B2" stroke="#003549" stroke-linecap="round" stroke-linejoin="round"></path><path d="M111.939 290.23C98.1292 287.58 86.7192 286 86.7192 286L86.4492 289.71C86.4492 289.71 86.5392 293.14 86.6892 298.46C93.0192 300.23 105.879 303.34 118.309 303.34C131.449 303.34 152.379 299.34 161.799 297.43L161.599 289.18C161.599 289.18 125.749 292.89 111.939 290.23Z" fill="#003549" stroke="#003549" stroke-linecap="round" stroke-linejoin="round"></path><path d="M158.07 424.79C158.24 426.62 158.35 427.67 158.35 427.67" stroke="#003549" stroke-linecap="round" stroke-linejoin="round"></path><path d="M154 303.72C154 303.72 155 355.04 155 374.41C155 387.81 156.62 408.15 157.62 419.41" stroke="#003549" stroke-linecap="round" stroke-linejoin="round"></path><path d="M100.25 300.82L102.67 356.5" stroke="#003549" stroke-linecap="round" stroke-linejoin="round"></path><path d="M102.18 360.85V370.05" stroke="#003549" stroke-linecap="round" stroke-linejoin="round"></path><path d="M114.77 149.44C113.462 149.447 112.175 149.765 111.015 150.369C109.855 150.972 108.856 151.843 108.1 152.91C106.446 155.092 104.606 157.126 102.6 158.99L78.8496 171.74L81.1696 262.4L82.0396 293.4C82.0396 293.4 100.28 299.48 117.66 299.48C135.04 299.48 166.03 292.48 166.03 292.48C166.03 292.48 163.43 171.7 164.3 171.7C165.17 171.7 147.21 156.1 139.1 152C130.99 147.9 114.77 149.44 114.77 149.44Z" fill="#3B62B2" stroke="#003549" stroke-linecap="round" stroke-linejoin="round"></path><path d="M108 160.4C108 160.4 117.2 177.35 121.08 185.1C124.96 192.85 132.2 204 132.2 204L144.31 171.56" stroke="#003549" stroke-linecap="round" stroke-linejoin="round"></path><path d="M114.8 267.91L114.33 254.38L87 252.79C87 252.79 87.27 272.71 87.8 273.79" stroke="#003549" stroke-linecap="round" stroke-linejoin="round"></path><path d="M115.13 277.49L115 273.69" stroke="#003549" stroke-linecap="round" stroke-linejoin="round"></path><path d="M147.529 275.36L146.729 253.06C146.729 253.06 156.289 253.85 164.259 248.54" stroke="#003549" stroke-linecap="round" stroke-linejoin="round"></path><path d="M106.549 199.92C107.389 202.57 109.949 204.13 112.259 203.39C114.569 202.65 115.739 199.9 114.889 197.25C114.039 194.6 111.489 193.04 109.179 193.78C106.869 194.52 105.699 197.27 106.549 199.92Z" stroke="#003549" stroke-linecap="round" stroke-linejoin="round"></path><path d="M106.819 153.52C106.819 153.52 103.749 165.32 110.729 197.35" stroke="#003549" stroke-width="2" stroke-linecap="round" stroke-linejoin="round"></path><path d="M112.879 198.45C112.673 198.865 112.353 199.212 111.956 199.45C111.558 199.688 111.101 199.808 110.638 199.794C110.175 199.78 109.726 199.633 109.344 199.372C108.962 199.11 108.663 198.744 108.482 198.318C108.302 197.891 108.248 197.422 108.326 196.965C108.404 196.509 108.612 196.085 108.924 195.743C109.237 195.401 109.641 195.156 110.088 195.036C110.536 194.917 111.008 194.929 111.449 195.07C112.084 195.332 112.591 195.834 112.858 196.466C113.126 197.099 113.134 197.812 112.879 198.45V198.45Z" stroke="#003549" stroke-linecap="round" stroke-linejoin="round"></path><path d="M163.138 170C163.138 170 167.478 173.19 167.768 174.35C168.058 175.51 182.828 210.84 182.828 210.84L161.398 214L161.688 193.14" fill="#3B62B2"></path><path d="M163.138 170C163.138 170 167.478 173.19 167.768 174.35C168.058 175.51 182.828 210.84 182.828 210.84L161.398 214L161.688 193.14" stroke="#003549" stroke-linecap="round" stroke-linejoin="round"></path><path d="M81.7494 170.58C81.7494 170.58 76.8194 171.16 75.6594 174.92C74.4994 178.68 66.1094 216.92 66.1094 216.92L96.8094 214L93.9094 185.32" fill="#3B62B2"></path><path d="M81.7494 170.58C81.7494 170.58 76.8194 171.16 75.6594 174.92C74.4994 178.68 66.1094 216.92 66.1094 216.92L96.8094 214L93.9094 185.32" stroke="#003549" stroke-linecap="round" stroke-linejoin="round"></path><path d="M141.049 151.72C141.049 151.72 148.659 156.06 149.409 166.86C150.159 177.66 149.409 180.4 149.409 180.4" stroke="#003549" stroke-width="2" stroke-linecap="round" stroke-linejoin="round"></path><path d="M152.849 194.23C152.849 194.23 152.169 207 150.779 210.69C149.389 214.38 143.889 218.75 139.529 219.45" stroke="#003549" stroke-linecap="round" stroke-linejoin="round"></path><path d="M142.999 192.85C142.999 192.85 142.389 207.58 142.329 210.32C142.269 213.06 145.029 217.83 148.989 222.4" stroke="#003549" stroke-linecap="round" stroke-linejoin="round"></path><path d="M149.927 223.522L149.811 223.616C149.48 223.884 148.995 223.833 148.728 223.503L148.167 222.812C147.899 222.482 147.95 221.997 148.28 221.729L148.397 221.634C148.727 221.366 149.212 221.417 149.48 221.747L150.04 222.439C150.308 222.769 150.257 223.254 149.927 223.522Z" fill="#003549" stroke="#003549"></path><path d="M138.483 219.971L138.455 219.824C138.376 219.406 138.651 219.003 139.069 218.924L139.943 218.758C140.361 218.679 140.764 218.954 140.843 219.371L140.871 219.519C140.95 219.937 140.675 220.339 140.258 220.419L139.383 220.584C138.965 220.663 138.562 220.389 138.483 219.971Z" fill="#003549" stroke="#003549"></path><path d="M152.999 195.2L152.709 184.47C152.682 183.351 152.238 182.282 151.465 181.472C150.692 180.662 149.645 180.169 148.529 180.09V180.09C147.342 180.002 146.17 180.387 145.266 181.16C144.363 181.934 143.803 183.034 143.709 184.22L142.809 195.1" stroke="#003549" stroke-width="2" stroke-linecap="round" stroke-linejoin="round"></path><path d="M177.909 219.82L170.999 218.37L146.669 214.32L112.549 207.82L104.459 204.25C104.459 204.25 96.8088 194.25 96.1488 193.25C95.4888 192.25 86.8388 195.74 87.1488 197.07C87.4588 198.4 88.4788 211.69 89.1488 212.53C89.8188 213.37 97.2888 213.36 97.2888 213.36C97.2888 213.36 132.929 230.56 134.409 231.19C154.979 239.86 164.899 239.78 168.409 240.35C171.919 240.92 174.209 239.5 176.229 237.18C178.249 234.86 177.909 219.82 177.909 219.82Z" fill="white" stroke="#003549" stroke-linecap="round" stroke-linejoin="round"></path><path d="M95.1103 193.11C95.1103 193.11 90.9603 193.28 84.8103 197.43C82.5203 198.98 81.3203 200.09 81.3203 200.76C81.4514 201.557 81.6763 202.336 81.9903 203.08C85.9776 201.16 90.1533 199.659 94.4503 198.6" fill="white"></path><path d="M95.1103 193.11C95.1103 193.11 90.9603 193.28 84.8103 197.43C82.5203 198.98 81.3203 200.09 81.3203 200.76C81.4514 201.557 81.6763 202.336 81.9903 203.08C85.9776 201.16 90.1533 199.659 94.4503 198.6" stroke="#003549" stroke-linecap="round" stroke-linejoin="round"></path><path d="M96.7702 203.75C96.7702 203.75 85.4802 206.57 83.6502 206.91C81.8202 207.25 81.4902 205.41 81.4902 204.75C81.4902 204.09 81.9902 203.08 83.9802 202.09C85.9702 201.1 95.9802 198.43 95.9802 198.43" fill="white"></path><path d="M96.7702 203.75C96.7702 203.75 85.4802 206.57 83.6502 206.91C81.8202 207.25 81.4902 205.41 81.4902 204.75C81.4902 204.09 81.9902 203.08 83.9802 202.09C85.9702 201.1 95.9802 198.43 95.9802 198.43" stroke="#003549" stroke-linecap="round" stroke-linejoin="round"></path><path d="M97.9387 208.9C97.9387 208.9 84.8087 210.23 83.8087 209.4C83.5028 209.067 83.2707 208.673 83.1276 208.244C82.9846 207.815 82.9338 207.36 82.9787 206.91L94.7787 204.41" fill="white"></path><path d="M97.9387 208.9C97.9387 208.9 84.8087 210.23 83.8087 209.4C83.5028 209.067 83.2707 208.673 83.1276 208.244C82.9846 207.815 82.9338 207.36 82.9787 206.91L94.7787 204.41" stroke="#003549" stroke-linecap="round" stroke-linejoin="round"></path><path d="M94.2784 209.56L84.1484 210.06C84.1484 210.06 84.6384 211.56 85.1484 211.72C87.5483 212.313 89.9934 212.704 92.4584 212.89C94.0749 212.943 95.6855 213.11 97.2784 213.39" fill="white"></path><path d="M94.2784 209.56L84.1484 210.06C84.1484 210.06 84.6384 211.56 85.1484 211.72C87.5483 212.313 89.9934 212.704 92.4584 212.89C94.0749 212.943 95.6855 213.11 97.2784 213.39" stroke="#003549" stroke-linecap="round" stroke-linejoin="round"></path><path d="M72.4785 216.34C72.4785 216.34 77.1085 236.34 78.2685 237.78C79.4285 239.22 88.9885 237.78 98.5485 234.88C108.109 231.98 148.659 214.61 148.659 214.61L154.449 215.76C154.449 215.76 152.129 208.52 148.079 208.23C144.029 207.94 96.8085 214 96.8085 214L72.4785 216.34Z" fill="white" stroke="#003549" stroke-linecap="round" stroke-linejoin="round"></path><path d="M113 136.69C113 136.69 113 137.12 113 137.85C113.09 141.66 113.46 153.76 114.43 156.68C115.59 160.15 131.23 189.41 132.43 187.09C133.63 184.77 140.83 153.2 140.83 153.2V140.75C140.83 140.75 137.06 143.93 130.11 143.93C123.16 143.93 113 136.69 113 136.69Z" fill="white" stroke="#003549" stroke-linecap="round" stroke-linejoin="round"></path><path d="M136.2 153.85C137.822 152.86 139.372 151.757 140.84 150.55V140.75C140.84 140.75 137.07 143.93 130.12 143.93C123.17 143.93 113 136.69 113 136.69C113 136.69 113 137.12 113 137.85C113 139.19 113.1 141.56 113.22 144.2C113.494 144.64 113.802 145.058 114.14 145.45C116.14 147.76 125.72 153.56 128.04 154.14C130.36 154.72 133.59 155.29 136.2 153.85Z" fill="#003549" stroke="#003549" stroke-linecap="round" stroke-linejoin="round"></path><path d="M147.789 119.89C147.789 119.89 152.419 117.28 152.419 122.21C152.419 127.14 148.079 132.93 148.079 132.93L147.789 119.89Z" fill="white" stroke="#003549" stroke-linecap="round" stroke-linejoin="round"></path><path d="M106.37 120.18C106.37 120.18 99.9902 118.44 99.9902 124.24C99.9902 130.04 105.79 133.79 105.79 133.79H109.79C109.79 133.79 112.11 139.59 114.14 141.9C116.17 144.21 125.72 150.01 128.04 150.59C130.36 151.17 133.54 151.75 136.15 150.3C139.429 148.256 142.451 145.825 145.15 143.06C146.31 141.62 148.34 131.77 148.34 131.77C148.34 131.77 148.92 114.1 147.76 108.02C146.6 101.94 139.07 92.3801 128.64 91.2201C118.21 90.0601 108.36 98.4601 106.92 105.12C105.48 111.78 106.37 120.18 106.37 120.18Z" fill="white" stroke="#003549" stroke-linecap="round" stroke-linejoin="round"></path><path d="M125.19 124.82C125.19 124.82 123.19 128.87 126.64 130.03C130.09 131.19 134.46 130.9 135.33 129.16C136.2 127.42 134.75 125.4 134.75 125.4" stroke="#003549" stroke-linecap="round" stroke-linejoin="round"></path><path d="M121.719 132.06C121.719 132.06 128.959 138.14 138.809 132.35" stroke="#003549" stroke-linecap="round" stroke-linejoin="round"></path><path d="M125.77 137.56C125.77 137.56 131.86 141.04 135.91 136.98" stroke="#003549" stroke-linecap="round" stroke-linejoin="round"></path><path d="M123.5 119C123.5 119.492 123.399 119.912 123.26 120.191C123.19 120.33 123.12 120.416 123.066 120.462C123.041 120.483 123.022 120.493 123.012 120.497C123.007 120.499 123.004 120.5 123.003 120.5C123.001 120.5 123.001 120.5 123 120.5C122.999 120.5 122.999 120.5 122.997 120.5C122.996 120.5 122.993 120.499 122.988 120.497C122.978 120.493 122.959 120.483 122.934 120.462C122.88 120.416 122.81 120.33 122.74 120.191C122.601 119.912 122.5 119.492 122.5 119C122.5 118.509 122.601 118.089 122.74 117.81C122.81 117.671 122.88 117.585 122.934 117.539C122.959 117.518 122.978 117.508 122.988 117.504C122.993 117.502 122.996 117.501 122.997 117.501C122.999 117.501 122.999 117.5 123 117.5C123.001 117.5 123.001 117.501 123.003 117.501C123.004 117.501 123.007 117.502 123.012 117.504C123.022 117.508 123.041 117.518 123.066 117.539C123.12 117.585 123.19 117.671 123.26 117.81C123.399 118.089 123.5 118.509 123.5 119Z" fill="#003549" stroke="#003549"></path><path d="M137.5 118.495C137.5 119.139 137.395 119.7 137.243 120.081C137.166 120.273 137.087 120.395 137.025 120.46C137.014 120.472 137.005 120.481 136.997 120.487C136.99 120.481 136.981 120.473 136.97 120.462C136.91 120.4 136.833 120.283 136.757 120.095C136.606 119.721 136.5 119.162 136.5 118.495C136.5 117.828 136.606 117.272 136.756 116.901C136.832 116.715 136.909 116.6 136.969 116.539C136.98 116.527 136.99 116.519 136.997 116.513C137.005 116.519 137.015 116.528 137.027 116.54C137.088 116.605 137.166 116.725 137.243 116.916C137.395 117.294 137.5 117.851 137.5 118.495ZM136.972 120.505C136.972 120.505 136.973 120.505 136.975 120.504C136.973 120.505 136.972 120.505 136.972 120.505ZM137.02 120.503C137.022 120.503 137.023 120.504 137.023 120.504C137.023 120.504 137.022 120.504 137.02 120.503ZM137.021 116.497C137.021 116.497 137.02 116.498 137.018 116.498C137.02 116.497 137.021 116.497 137.021 116.497ZM136.976 116.497C136.974 116.497 136.973 116.496 136.973 116.496C136.973 116.496 136.974 116.496 136.976 116.497Z" fill="#003549" stroke="#003549"></path><path d="M118.24 115.84C118.24 115.84 119.69 113.52 125.24 114.39" stroke="#003549" stroke-linecap="round" stroke-linejoin="round"></path><path d="M134.17 114.68C134.17 114.68 136.78 110.62 140.84 114.68" stroke="#003549" stroke-linecap="round" stroke-linejoin="round"></path><path d="M147.79 108C147.414 106.28 146.762 104.632 145.86 103.12C145.523 104.723 145.405 106.365 145.51 108C145.93 110.12 147.42 113.08 147.42 114.56C147.42 116.04 147.2 121.97 148.26 121.13C148.365 121.019 148.45 120.89 148.51 120.75C148.576 116.488 148.335 112.227 147.79 108Z" fill="#003549" stroke="#003549" stroke-linecap="round" stroke-linejoin="round"></path><path d="M133.23 96.0001C135.09 95.9016 136.941 95.6778 138.77 95.3301C135.815 93.1183 132.333 91.7186 128.67 91.2701C118.24 90.1101 108.39 98.5101 106.95 105.17C105.51 111.83 106.37 120.23 106.37 120.23C106.37 120.23 108.67 121.83 109.52 120.14C110.37 118.45 109.52 115.69 110.37 112.73C111.22 109.77 112.48 108.28 112.69 105.95C112.9 103.62 111.42 100.24 112.27 98.3301C113.12 96.4201 118.41 92.8301 121.8 94.1001C125.447 95.4815 129.332 96.1273 133.23 96.0001Z" fill="#003549" stroke="#003549" stroke-linecap="round" stroke-linejoin="round"></path><path d="M253.47 439.381L254.366 456.397H256.16L256.754 441.466L253.47 439.381Z" fill="white" stroke="#003549" stroke-linecap="round" stroke-linejoin="round"></path><path d="M279.16 331.258L273.78 355.447C273.78 355.447 277.064 371.879 273.478 386.518C269.891 401.157 263.333 424.439 263.333 428.328C263.333 432.217 267.503 444.75 268.702 449.525C269.902 454.3 271.695 454.603 272.289 457.293C272.883 459.983 260.643 459.086 258.547 458.189C256.451 457.293 255.565 450.13 255.565 447.137C255.565 444.145 254.669 442.06 253.48 439.38C252.291 436.7 251.989 434 253.48 431.31C254.522 429.59 255.137 427.645 255.273 425.638C255.273 424.741 251.395 380.241 251.395 367.698C251.395 355.156 251.687 340.819 251.395 339.026C251.103 337.233 250.498 334.251 250.498 334.251L279.16 331.258Z" fill="white" stroke="#003549" stroke-linecap="round" stroke-linejoin="round"></path><path d="M253.47 439.381C252.281 436.691 251.979 434.001 253.47 431.311C253.678 430.946 253.856 430.602 254.012 430.268C254.05 431.82 254.168 433.369 254.367 434.908C254.961 439.391 257.057 443.249 257.057 447.42C257.057 451.59 259.142 452.8 260.039 452.8C260.935 452.8 267.744 452.998 270.048 453.071C270.965 454.749 271.893 455.49 272.29 457.241C272.884 459.931 260.643 459.035 258.548 458.138C256.452 457.241 255.566 450.078 255.566 447.086C255.566 444.094 254.669 442.06 253.47 439.381Z" fill="#003549" stroke="#003549" stroke-linecap="round" stroke-linejoin="round"></path><path d="M254.367 333.646C254.367 333.646 252.876 359.639 252.876 372.224C252.876 384.808 249.592 417.057 249.592 420.905C249.592 424.752 250.489 435.835 251.083 442.404C251.677 448.972 255.254 456.146 254.367 457.637C253.481 459.128 251.385 459.43 250.489 459.43C249.592 459.43 242.419 459.128 241.522 458.534C240.625 457.939 239.437 454.947 238.843 444.792C238.248 434.636 240.636 425.378 239.437 419.706C238.238 414.034 230.178 385.361 229.584 373.715C228.99 362.068 231.377 351.913 231.075 345.636C230.694 340.621 229.997 335.634 228.99 330.706L254.378 331.602L254.367 333.646Z" fill="white" stroke="#003549" stroke-linecap="round" stroke-linejoin="round"></path><path d="M288.711 268.283C290.792 279.102 291.492 290.141 290.796 301.137C289.597 319.06 280.046 333.688 280.046 333.688C280.046 333.688 272.873 337.859 249.581 337.577C230.469 337.327 224.192 332.802 224.192 332.802C224.192 332.802 216.727 309.499 216.727 293.974C216.727 278.449 219.115 270.077 219.115 270.077L287.512 262.914L288.711 268.283Z" fill="#003549" stroke="#003549" stroke-linecap="round" stroke-linejoin="round"></path><path d="M257.953 169.389L283.685 178.543C283.685 178.543 296.197 224.044 295.582 226.734C294.966 229.424 279.452 230.612 279.452 230.612L291.39 268.283C291.39 268.283 288.7 274.539 283.331 277.25C277.961 279.961 264.511 283.224 264.511 283.224L260.028 276.051L257.348 283.516C257.348 283.516 240.666 285.309 228.373 280.534C216.08 275.759 213.14 273.965 213.14 273.965L224.797 238.046L221.22 227.62L204.163 231.092C204.163 231.092 208.073 181.327 209.574 180.128C211.076 178.929 241.521 171.171 243.616 170.577C245.712 169.983 254.366 168.19 257.953 169.389Z" fill="#46C4BA" stroke="#003549" stroke-linecap="round" stroke-linejoin="round"></path><path d="M252.282 164.613C253.696 164.411 255.137 164.549 256.487 165.017C257.836 165.485 259.054 166.269 260.039 167.303C263.626 170.879 267.807 187.906 267.807 187.906L260.644 188.5L266.013 193.578L255.264 207.914L250.186 208.519L237.049 196.57L240.333 190.314H229.583C229.583 190.314 228.687 175.081 232.273 168.815C235.86 162.549 252.282 164.613 252.282 164.613Z" fill="white" stroke="#003549" stroke-linecap="round" stroke-linejoin="round"></path><path d="M240.636 118.54C237.813 120.719 235.476 123.464 233.775 126.599C232.274 129.592 231.377 134.075 229.605 134.94C227.832 135.806 224.225 135.243 224.225 137.63C224.225 140.018 227.207 141.519 227.207 142.416C227.207 143.313 226.612 156.148 227.207 158.535C227.801 160.923 235.277 161.225 236.173 161.528C237.07 161.83 253.794 219.467 253.794 219.467L258.569 220.062L254.691 161.225C254.691 161.225 260.06 161.225 264.241 152.884C268.422 144.543 259.163 137.057 253.189 130.186C249.41 125.889 245.204 121.986 240.636 118.54Z" fill="white" stroke="#003549" stroke-linecap="round" stroke-linejoin="round"></path><path d="M252.532 197.259L256.703 191.461L258.59 220.082L253.815 219.488C253.815 219.488 249.978 206.288 245.89 192.494L252.532 197.259Z" fill="white" stroke="#003549" stroke-linecap="round" stroke-linejoin="round"></path><path d="M258.256 150.465C258.256 150.465 253.178 150.465 252 146.586C251.353 144.753 250.95 142.842 250.801 140.904C250.801 140.904 242.147 128.663 237.664 122.387C233.181 116.11 239.155 110.74 248.09 110.74C255.743 110.74 270.486 117.611 276.753 126.568C283.019 135.524 276.158 149.568 271.383 154.052C266.608 158.535 261.822 160.307 259.132 158.827C256.442 157.346 258.256 150.465 258.256 150.465Z" fill="#003549" stroke="#003549" stroke-linecap="round" stroke-linejoin="round"></path><path d="M274.979 125.441C275.95 122.043 277.932 119.021 280.662 116.776C285.135 113.19 295.895 117.079 300.67 125.441C305.445 133.803 295.895 141.862 294.998 144.552C294.101 147.242 297.98 147.242 298.574 150.527C299.169 153.811 295.29 155.907 292.902 157.095C290.515 158.284 292.308 158.294 293.497 163.07C294.685 167.845 293.205 170.837 285.437 170.837C277.669 170.837 279.463 163.372 280.359 160.984C281.256 158.597 278.566 160.984 276.481 156.199C274.395 151.413 279.765 143.958 279.765 140.371C279.765 136.785 272.623 134.074 274.979 125.441Z" fill="#003549" stroke="#003549" stroke-linecap="round" stroke-linejoin="round"></path><path d="M235.195 135.53L235.195 135.53L235.194 135.533C235.045 136.062 235.036 136.552 235.117 136.905C235.204 137.283 235.352 137.373 235.402 137.386C235.459 137.401 235.633 137.393 235.896 137.115C236.143 136.854 236.385 136.428 236.535 135.89C236.684 135.355 236.692 134.864 236.611 134.514C236.525 134.139 236.378 134.05 236.326 134.036C236.271 134.022 236.094 134.03 235.829 134.311C235.58 134.574 235.339 134.999 235.195 135.53Z" fill="#003549" stroke="#003549"></path><path d="M240.301 132.281C240.301 132.281 238.215 127.798 234.629 129.591" stroke="#003549" stroke-linecap="round" stroke-linejoin="round"></path><path d="M227.789 146.91C227.789 146.91 231.074 148.703 233.764 147.515" stroke="#003549" stroke-linecap="round" stroke-linejoin="round"></path><path d="M254.378 151.091C254.378 151.091 260.049 144.522 263.042 149.6C266.034 154.677 261.843 158.858 257.662 159.453C253.481 160.047 251.99 157.367 251.99 157.367" fill="white"></path><path d="M254.378 151.091C254.378 151.091 260.049 144.522 263.042 149.6C266.034 154.677 261.843 158.858 257.662 159.453C253.481 160.047 251.99 157.367 251.99 157.367" stroke="#003549" stroke-linecap="round" stroke-linejoin="round"></path><path d="M212.557 221.364L255.858 225.535L262.729 233C262.729 233 238.842 237.786 223.306 239.256C207.771 240.726 204.758 240.08 204.163 237.994C203.569 235.909 204.789 221.938 204.789 221.938" fill="#46C4BA"></path><path d="M212.557 221.364L255.858 225.535L262.729 233C262.729 233 238.842 237.786 223.306 239.256C207.771 240.726 204.758 240.08 204.163 237.994C203.569 235.909 204.789 221.938 204.789 221.938" stroke="#003549" stroke-linecap="round" stroke-linejoin="round"></path><path d="M223.306 222.553L224.797 198.062" stroke="#003549" stroke-linecap="round" stroke-linejoin="round"></path><path d="M278.264 212.992L274.979 194.183" stroke="#003549" stroke-linecap="round" stroke-linejoin="round"></path><path d="M263.031 218.663C263.031 218.663 276.47 213.586 278.264 212.991C280.057 212.397 283.633 213.888 286.605 215.984C289.576 218.079 290.775 218.966 290.775 218.966C289.284 220.457 264.49 220.165 264.49 220.165C264.49 220.165 261.832 221.656 263.031 218.663Z" fill="white" stroke="#003549" stroke-linecap="round" stroke-linejoin="round"></path><path d="M237.945 218.967C237.945 218.967 229.281 217.173 227.79 218.07C226.299 218.967 220.022 221.354 220.022 221.354L227.79 224.347L236.454 225.838L237.945 218.967Z" fill="white" stroke="#003549" stroke-linecap="round" stroke-linejoin="round"></path><path d="M233.763 225.838L236.13 217.768L287.219 218.967C287.219 218.967 293.788 216.882 296.478 222.554C299.168 228.226 301.253 237.484 295.884 239.58C290.514 241.676 236.453 226.14 233.763 225.838Z" fill="#46C4BA" stroke="#003549" stroke-linecap="round" stroke-linejoin="round"></path><path d="M259.443 233.605L261.236 273.319" stroke="#003549" stroke-linecap="round" stroke-linejoin="round"></path><path d="M240.03 437.88C240.332 443.562 241.229 450.391 243.022 452.216C244.816 454.04 252.875 452.216 252.875 452.216L253.449 452.403C254.22 454.948 254.783 456.897 254.366 457.617C253.469 459.108 251.384 459.41 250.488 459.41C249.591 459.41 242.418 459.108 241.521 458.513C240.624 457.919 239.436 454.927 238.841 444.771C238.67 439.609 238.879 434.441 239.467 429.309C239.55 430.279 239.79 433.302 240.03 437.88Z" fill="#003549" stroke="#003549" stroke-linecap="round" stroke-linejoin="round"></path><path d="M75 89.4986C75.003 92.1689 74.3558 94.7998 73.1143 97.164H69.1543C68.8867 97.164 68.6301 97.2703 68.4409 97.4595C68.2517 97.6487 68.1454 97.9053 68.1454 98.1729V102.887C65.1407 105.052 61.4951 106.143 57.7952 105.985C54.0952 105.827 50.556 104.428 47.7471 102.015C44.9382 99.6016 43.0228 96.3133 42.3092 92.6794C41.5956 89.0454 42.1253 85.2771 43.813 81.9807C45.5007 78.6842 48.2482 76.0514 51.6136 74.5058C54.979 72.9601 58.7665 72.5916 62.3667 73.4595C65.9669 74.3274 69.1705 76.3811 71.462 79.2904C73.7535 82.1997 74.9997 85.7952 75 89.4986V89.4986Z" stroke="#3B62B2" stroke-linecap="round" stroke-linejoin="round"></path><path d="M67.4747 79.8863L47.1359 83.8434C46.4115 83.9844 45.9385 84.6859 46.0794 85.4104L48.6914 98.8354C48.8324 99.5598 49.5339 100.033 50.2583 99.8919L70.5971 95.9347C71.3215 95.7938 71.7946 95.0922 71.6536 94.3678L69.0416 80.9428C68.9007 80.2184 68.1991 79.7453 67.4747 79.8863Z" stroke="#3B62B2" stroke-linecap="round" stroke-linejoin="round"></path><path d="M46 86.1184L57.0269 91.6422C57.6833 91.9696 58.4428 92.0767 59.1755 91.9453C59.9082 91.8139 60.5685 91.4521 61.0437 90.9217L69 82" stroke="#3B62B2" stroke-linecap="round" stroke-linejoin="round"></path><path d="M51 98L57 92" stroke="#3B62B2" stroke-linecap="round" stroke-linejoin="round"></path><path d="M70 94L61 91" stroke="#3B62B2" stroke-linecap="round" stroke-linejoin="round"></path><path d="M74.9982 97H69.0018C68.4485 97 68 97.4485 68 98.0018V103.998C68 104.551 68.4485 105 69.0018 105H74.9982C75.5515 105 76 104.551 76 103.998V98.0018C76 97.4485 75.5515 97 74.9982 97Z" stroke="#3B62B2" stroke-linecap="round" stroke-linejoin="round"></path><mask id="path-200-inside-2" fill="white"><path d="M74 100.544H72.4565V99H71.5435V100.544H70V101.456H71.5435V103H72.4565V101.456H74V100.544Z"></path></mask><path d="M74 100.544H75V99.5435H74V100.544ZM72.4565 100.544H71.4565V101.544H72.4565V100.544ZM72.4565 99H73.4565V98H72.4565V99ZM71.5435 99V98H70.5435V99H71.5435ZM71.5435 100.544V101.544H72.5435V100.544H71.5435ZM70 100.544V99.5435H69V100.544H70ZM70 101.456H69V102.456H70V101.456ZM71.5435 101.456H72.5435V100.456H71.5435V101.456ZM71.5435 103H70.5435V104H71.5435V103ZM72.4565 103V104H73.4565V103H72.4565ZM72.4565 101.456V100.456H71.4565V101.456H72.4565ZM74 101.456V102.456H75V101.456H74ZM74 99.5435H72.4565V101.544H74V99.5435ZM73.4565 100.544V99H71.4565V100.544H73.4565ZM72.4565 98H71.5435V100H72.4565V98ZM70.5435 99V100.544H72.5435V99H70.5435ZM71.5435 99.5435H70V101.544H71.5435V99.5435ZM69 100.544V101.456H71V100.544H69ZM70 102.456H71.5435V100.456H70V102.456ZM70.5435 101.456V103H72.5435V101.456H70.5435ZM71.5435 104H72.4565V102H71.5435V104ZM73.4565 103V101.456H71.4565V103H73.4565ZM72.4565 102.456H74V100.456H72.4565V102.456ZM75 101.456V100.544H73V101.456H75Z" fill="#3B62B2" mask="url(#path-200-inside-2)"></path><path d="M41.2165 191.248L37.6969 191.899L37.0056 188L32.824 188.776L33.5154 192.675L30 193.326L30.7835 197.752L34.2989 197.101L34.9902 201L39.1718 200.229L38.4804 196.325L42 195.674L41.2165 191.248Z" stroke="#3B62B2" stroke-linecap="round" stroke-linejoin="round"></path><path d="M233.25 70.25C239.739 63.7607 239.739 53.2393 233.25 46.75C226.761 40.2607 216.239 40.2607 209.75 46.75C203.261 53.2393 203.261 63.7607 209.75 70.25C216.239 76.7393 226.761 76.7393 233.25 70.25Z" stroke="#3B62B2" stroke-linecap="round" stroke-linejoin="round"></path><path d="M235 56.2263C235 57.3302 234.652 58.4063 234.004 59.3032C233.357 60.2002 232.443 60.8729 231.39 61.2267L223.978 63.7077L214.957 66.7365C213.628 67.1707 212.18 67.0652 210.929 66.4432C209.678 65.8211 208.725 64.7328 208.278 63.4154C207.831 62.0981 207.926 60.6585 208.542 59.4103C209.158 58.1622 210.246 57.2067 211.568 56.7521L219.763 54.0136L227.996 51.2752C228.792 51.0089 229.641 50.9345 230.472 51.058C231.303 51.1814 232.093 51.4993 232.776 51.9854C233.46 52.4715 234.017 53.1119 234.403 53.854C234.788 54.596 234.991 55.4185 234.994 56.2537L235 56.2263Z" stroke="#3B62B2" stroke-linecap="round" stroke-linejoin="round"></path><path d="M224 64C223.822 60.0886 222.686 56.8126 220 54" stroke="#3B62B2" stroke-linecap="round" stroke-linejoin="round"></path><path d="M203.44 112.72C203.44 113.851 203.105 114.957 202.476 115.898C201.847 116.839 200.954 117.572 199.909 118.005C198.864 118.438 197.714 118.551 196.604 118.33C195.495 118.109 194.475 117.565 193.675 116.765C192.875 115.965 192.331 114.945 192.11 113.836C191.889 112.726 192.002 111.576 192.435 110.531C192.868 109.486 193.601 108.593 194.542 107.964C195.483 107.335 196.589 107 197.72 107C199.236 107.003 200.69 107.606 201.762 108.678C202.834 109.75 203.437 111.204 203.44 112.72V112.72Z" stroke="#3B62B2" stroke-linecap="round" stroke-linejoin="round"></path><path d="M299.24 100.62C299.24 100.94 299.145 101.254 298.967 101.52C298.789 101.786 298.536 101.994 298.24 102.117C297.944 102.239 297.618 102.271 297.304 102.209C296.99 102.146 296.701 101.992 296.474 101.766C296.248 101.539 296.094 101.25 296.031 100.936C295.969 100.622 296.001 100.296 296.123 100C296.246 99.704 296.454 99.451 296.72 99.273C296.986 99.095 297.3 99 297.62 99C298.05 99 298.462 99.1707 298.766 99.4745C299.069 99.7783 299.24 100.19 299.24 100.62V100.62Z" stroke="#3B62B2" stroke-linecap="round" stroke-linejoin="round"></path><path d="M344.564 69.7462L338.111 70.8985L336.844 64L329.177 65.3721L330.445 72.2706L324 73.4229L325.436 81.2538L331.881 80.1015L333.149 87L340.815 85.6355L339.547 78.7294L346 77.5771L344.564 69.7462Z" stroke="#3B62B2" stroke-linecap="round" stroke-linejoin="round"></path><path d="M440.724 100.169C438.334 103.169 434.844 106.169 431.534 109.249L429.274 111.249H429.224L426.854 109.249C423.808 106.738 420.963 103.993 418.344 101.039" stroke="#3B62B2" stroke-linecap="round" stroke-linejoin="round"></path><path d="M441.283 97.7483L437.283 97.9183L436.143 100.238L433.423 92.8883L431.703 100.268L429.973 96.5883L427.823 103.258L424.203 88.9083L422.123 98.5483L417.703 98.7483C414.813 94.9883 413.703 91.2083 417.093 87.6683C421.283 83.2183 426.543 86.9483 429.233 89.4083C431.833 86.8983 437.573 81.7583 442.423 87.8983C444.893 90.9383 443.663 94.4683 441.283 97.7483Z" stroke="#3B62B2" stroke-linecap="round" stroke-linejoin="round"></path><path d="M458.232 194.095L456.013 192.1L458.285 189.639L455.648 187.268L453.376 189.729L451.16 187.736L448.58 190.529L450.797 192.522L448.525 194.983L451.16 197.356L453.434 194.893L455.653 196.888L458.232 194.095Z" stroke="#3B62B2" stroke-linecap="round" stroke-linejoin="round"></path></svg> 